<svg width="225" height="229" viewBox="0 0 225 229" fill="none" xmlns="http://www.w3.org/2000/svg">
<path d="M104.975 7.1C104.975 3.2 108.175 0 112.075 0C115.975 0 119.175 3.2 119.175 7.1V14.2H194.175C196.375 14.2 198.375 15.2 199.775 16.9L222.575 45.4C224.675 48 224.675 51.7 222.575 53.9L199.775 82.4C198.475 84.5 196.375 85.5 194.175 85.5H119.175V99.8H197.575C205.475 99.8 211.875 106.2 211.875 114.1V156.9C211.875 164.8 205.475 171.2 197.575 171.2H119.175V221.1C119.175 225 115.975 228.2 112.075 228.2C108.175 228.2 104.975 225 104.975 221.1V171.2H29.975C27.775 171.2 25.775 170.2 24.375 168.1L1.575 139.6C-0.525 137.4 -0.525 133.7 1.575 131.1L24.375 102.6C25.675 100.9 27.775 99.9 29.975 99.9H104.975V85.6H26.475C18.575 85.6 12.175 79.2 12.175 71.3V28.5C12.175 20.6 18.575 14.2 26.475 14.2H104.875V7.1H104.975ZM16.275 135.4L33.375 156.8H197.675V114H33.375L16.275 135.4ZM190.775 28.5H26.475V71.3H190.775L207.875 49.9L190.775 28.5Z" fill="white"/>
</svg>
