<?xml version="1.0" encoding="utf-8"?>
<!-- Generator: Adobe Illustrator 27.4.1, SVG Export Plug-In . SVG Version: 6.00 Build 0)  -->
<svg version="1.1" id="Capa_1" xmlns="http://www.w3.org/2000/svg" xmlns:xlink="http://www.w3.org/1999/xlink" x="0px" y="0px"
	 viewBox="0 0 300 300" style="enable-background:new 0 0 300 300;" xml:space="preserve">
<style type="text/css">
	.st0{fill:#C48800;}
	.st1{fill:#FDFDFD;}
</style>
<g>
	<path class="st0" d="M273,99.3v34.2c-11.3,0-20.5,9.2-20.5,20.5c0,11.3,9.2,20.5,20.5,20.5v34.2c0,15.1-12.3,27.3-27.3,27.3H54.4
		c-15.1,0-27.3-12.3-27.3-27.3v-34.2c11.3,0,20.5-9.2,20.5-20.5c0-11.3-9.2-20.5-20.5-20.5V99.3C27,84.2,39.3,72,54.4,72h191.3
		C260.7,72,273,84.2,273,99.3z M40.7,122.7c12.1,5.3,20.5,17.3,20.5,31.3c0,14-8.4,25.7-20.5,31.3v23.4c0,7.6,6.1,13.7,13.7,13.7
		h191.3c7.6,0,13.7-6.1,13.7-13.7v-23.4c-12.1-5.6-20.5-17.3-20.5-31.3c0-14,8.4-26,20.5-31.3V99.3c0-7.6-6.1-13.7-13.7-13.7H54.4
		c-7.5,0-13.7,6.1-13.7,13.7V122.7z M81.7,126.6c0-7.6,6.1-13.7,13.7-13.7h109.3c7.6,0,13.7,6.1,13.7,13.7v54.7
		c0,7.6-6.1,13.7-13.7,13.7H95.3c-7.6,0-13.7-6.1-13.7-13.7V126.6z M95.3,181.3h109.3v-54.7H95.3V181.3z"/>
</g>
<g>
	<path d="M64,811c0.6-1.5,1.7-2,3.3-2c9.8,0,19.6,0,29.5,0c2.2,0,3.1,0.9,3.1,3.1c0,9.9,0,19.7,0,29.6c0,2.2-0.9,3.2-3.1,3.2
		c-9.8,0-19.6,0-29.5,0c-1.6,0-2.7-0.5-3.3-2C64,832.3,64,821.6,64,811z M81.9,839.8c4,0,8.1,0,12.1,0c0.6,0,0.8-0.1,0.8-0.8
		c0-8,0-16.1,0-24.1c0-0.6-0.1-0.8-0.8-0.8c-8.1,0-16.1,0-24.2,0c-0.6,0-0.8,0.1-0.8,0.7c0,8.1,0,16.2,0,24.2c0,0.6,0.2,0.7,0.8,0.7
		C73.9,839.8,77.9,839.8,81.9,839.8z"/>
	<path d="M107,885.9c-1.5-0.6-2-1.7-2-3.3c0-9.8,0-19.6,0-29.4c0-2.2,0.9-3.1,3.2-3.1c9.9,0,19.7,0,29.6,0c2.2,0,3.2,0.9,3.2,3.1
		c0,9.9,0,19.7,0,29.6c0,1.8-0.5,2.5-2.1,3.2C128.2,885.9,117.6,885.9,107,885.9z M110.1,868c0,4.1,0,8.1,0,12.2
		c0,0.4,0,0.7,0.6,0.7c8.2,0,16.4,0,24.6,0c0.5,0,0.6-0.2,0.6-0.6c0-8.2,0-16.3,0-24.5c0-0.5-0.2-0.6-0.6-0.6c-8.1,0-16.3,0-24.4,0
		c-0.5,0-0.7,0.2-0.6,0.7C110.2,859.9,110.1,863.9,110.1,868z"/>
	<path d="M64,852c0.6-1.5,1.7-2,3.3-2c9.8,0,19.6,0,29.4,0c2.2,0,3.2,0.9,3.2,3.1c0,9.9,0,19.7,0,29.6c0,1.8-0.5,2.5-2.1,3.2
		c-10.6,0-21.2,0-31.9,0c-0.9-0.4-1.6-1-2-2C64,873.3,64,862.6,64,852z M94.8,868c0-4,0-8.1,0-12.1c0-0.6-0.1-0.8-0.8-0.8
		c-8,0-16.1,0-24.1,0c-0.6,0-0.8,0.1-0.8,0.8c0,8.1,0,16.1,0,24.2c0,0.6,0.1,0.8,0.7,0.8c8.1,0,16.2,0,24.3,0c0.6,0,0.7-0.2,0.7-0.8
		C94.8,876,94.8,872,94.8,868z"/>
	<path class="st1" d="M64,884c0.4,0.9,1,1.6,2,2c-0.7,0-1.6,0.3-1.9-0.1C63.7,885.5,64,884.6,64,884z"/>
	<path d="M123,809c5,0,10,0,15,0c2,0,3,1,3,3c0,10,0,19.9,0,29.9c0,2-1,3-3,3c-10,0-20,0-30,0c-1.9,0-3-1-3-3c0-10,0-20,0-30
		c0-2,1-3,3-3C113,809,118,809,123,809z M123,814.1c-4,0-8,0-12,0c-0.6,0-0.8,0.1-0.8,0.8c0,8,0,16.1,0,24.1c0,0.6,0.1,0.8,0.8,0.8
		c8.1,0,16.1,0,24.2,0c0.6,0,0.8-0.1,0.7-0.7c0-8.1,0-16.1,0-24.2c0-0.6-0.1-0.8-0.8-0.8C131,814.2,127,814.1,123,814.1z"/>
</g>
</svg>
