<?xml version="1.0" encoding="utf-8"?>
<!-- Generator: Adobe Illustrator 27.4.1, SVG Export Plug-In . SVG Version: 6.00 Build 0)  -->
<svg version="1.1" id="Capa_1" xmlns="http://www.w3.org/2000/svg" xmlns:xlink="http://www.w3.org/1999/xlink" x="0px" y="0px"
	 viewBox="0 0 300 300" style="enable-background:new 0 0 300 300;" xml:space="preserve">
<style type="text/css">
	.st0{fill:#C48800;}
	.st1{fill:#FDFDFD;}
</style>
<g>
	<path class="st0" d="M286.6,64.7v98.6c0,9.8-6.4,18-15.5,20.3l-151,37.8l-37.8,35.5c-4,3.9-9,6-14.3,6c-2.6,0-5.4-0.2-8-1.6
		c-7.8-3.2-12.6-10.5-12.6-18.9l0.1-63l-23.8,14.3c-1.1,0.7-2.3,1-3.5,1c-2.3,0-4.6-1.2-5.9-3.3c-1.9-3.2-0.9-7.4,2.3-9.4l24.4-14.6
		L16.7,153c-3.2-1.9-4.3-6.1-2.3-9.4c1.9-3.2,6.2-4.3,9.4-2.4l23.8,14.3l0-22.5c0-11.3-9.2-20.5-20.5-20.5h-6.8
		c-3.8,0-6.8-3.4-6.8-6.8s3.1-6.4,6.8-6.4H27c18.8,0,34.2,14.9,34.2,33.8l0,22.5L85,141.3c3.2-2,7.4-0.9,9.4,2.3
		c1.9,3.2,0.9,7.4-2.3,9.4l-24.4,14.3l24.4,15c3.2,1.9,4.3,6.1,2.3,9.4c-1.3,2.1-3.5,3.3-5.8,3.3c-1.2,0-2.4-0.3-3.5-1l-23.9-14.3
		l-0.1,63.1c0,4.2,3.2,5.9,4.2,6.3c1,0.4,4.4,1.5,7.4-1.5l36.8-34.9l38.1-152.5c2.3-9.1,10.5-15.5,19.9-15.5h98.6
		C277.5,44.6,286.6,53.8,286.6,64.7z M128.5,193.1l80.2-80.2l-48.1-48.1L128.5,193.1z M266.4,170.7l-48.1-48.1l-80.2,80.2
		L266.4,170.7z M263.3,58.3h-90l45,45l45-45.4V58.3z M273,68l-45,45l45,45V68z"/>
</g>
<g>
	<path d="M64,811c0.6-1.5,1.7-2,3.3-2c9.8,0,19.6,0,29.5,0c2.2,0,3.1,0.9,3.1,3.1c0,9.9,0,19.7,0,29.6c0,2.2-0.9,3.2-3.1,3.2
		c-9.8,0-19.6,0-29.5,0c-1.6,0-2.7-0.5-3.3-2C64,832.3,64,821.6,64,811z M81.9,839.8c4,0,8.1,0,12.1,0c0.6,0,0.8-0.1,0.8-0.8
		c0-8,0-16.1,0-24.1c0-0.6-0.1-0.8-0.8-0.8c-8.1,0-16.1,0-24.2,0c-0.6,0-0.8,0.1-0.8,0.7c0,8.1,0,16.2,0,24.2c0,0.6,0.2,0.7,0.8,0.7
		C73.9,839.8,77.9,839.8,81.9,839.8z"/>
	<path d="M107,885.9c-1.5-0.6-2-1.7-2-3.3c0-9.8,0-19.6,0-29.4c0-2.2,0.9-3.1,3.2-3.1c9.9,0,19.7,0,29.6,0c2.2,0,3.2,0.9,3.2,3.1
		c0,9.9,0,19.7,0,29.6c0,1.8-0.5,2.5-2.1,3.2C128.2,885.9,117.6,885.9,107,885.9z M110.1,868c0,4.1,0,8.1,0,12.2
		c0,0.4,0,0.7,0.6,0.7c8.2,0,16.4,0,24.6,0c0.5,0,0.6-0.2,0.6-0.6c0-8.2,0-16.3,0-24.5c0-0.5-0.2-0.6-0.6-0.6c-8.1,0-16.3,0-24.4,0
		c-0.5,0-0.7,0.2-0.6,0.7C110.2,859.9,110.1,863.9,110.1,868z"/>
	<path d="M64,852c0.6-1.5,1.7-2,3.3-2c9.8,0,19.6,0,29.4,0c2.2,0,3.2,0.9,3.2,3.1c0,9.9,0,19.7,0,29.6c0,1.8-0.5,2.5-2.1,3.2
		c-10.6,0-21.2,0-31.9,0c-0.9-0.4-1.6-1-2-2C64,873.3,64,862.6,64,852z M94.8,868c0-4,0-8.1,0-12.1c0-0.6-0.1-0.8-0.8-0.8
		c-8,0-16.1,0-24.1,0c-0.6,0-0.8,0.1-0.8,0.8c0,8.1,0,16.1,0,24.2c0,0.6,0.1,0.8,0.7,0.8c8.1,0,16.2,0,24.3,0c0.6,0,0.7-0.2,0.7-0.8
		C94.8,876,94.8,872,94.8,868z"/>
	<path class="st1" d="M64,884c0.4,0.9,1,1.6,2,2c-0.7,0-1.6,0.3-1.9-0.1C63.7,885.5,64,884.6,64,884z"/>
	<path d="M123,809c5,0,10,0,15,0c2,0,3,1,3,3c0,10,0,19.9,0,29.9c0,2-1,3-3,3c-10,0-20,0-30,0c-1.9,0-3-1-3-3c0-10,0-20,0-30
		c0-2,1-3,3-3C113,809,118,809,123,809z M123,814.1c-4,0-8,0-12,0c-0.6,0-0.8,0.1-0.8,0.8c0,8,0,16.1,0,24.1c0,0.6,0.1,0.8,0.8,0.8
		c8.1,0,16.1,0,24.2,0c0.6,0,0.8-0.1,0.7-0.7c0-8.1,0-16.1,0-24.2c0-0.6-0.1-0.8-0.8-0.8C131,814.2,127,814.1,123,814.1z"/>
</g>
</svg>
