<svg width="274" height="219" viewBox="0 0 274 219" fill="none" xmlns="http://www.w3.org/2000/svg">
<path d="M273.6 20.7V119.3C273.6 129.1 267.2 137.3 258.1 139.6L107.1 177.4L69.3 212.9C65.3 216.8 60.3 218.9 55 218.9C52.4 218.9 49.6 218.7 47 217.3C39.2 214.1 34.4 206.8 34.4 198.4L34.5 135.4L10.7 149.7C9.60003 150.4 8.40003 150.7 7.20003 150.7C4.90003 150.7 2.60003 149.5 1.30003 147.4C-0.599975 144.2 0.400025 140 3.60003 138L28 123.4L3.70003 109C0.500026 107.1 -0.599975 102.9 1.40002 99.6C3.30002 96.4 7.60002 95.3 10.8 97.2L34.6 111.5V89C34.6 77.7 25.4 68.5 14.1 68.5H7.30002C3.50002 68.5 0.500025 65.1 0.500025 61.7C0.500025 58.3 3.60002 55.3 7.30002 55.3H14C32.8 55.3 48.2 70.2 48.2 89.1V111.6L72 97.3C75.2 95.3 79.4 96.4 81.4 99.6C83.3 102.8 82.3 107 79.1 109L54.7 123.3L79.1 138.3C82.3 140.2 83.4 144.4 81.4 147.7C80.1 149.8 77.9 151 75.6 151C74.4 151 73.2 150.7 72.1 150L48.2 135.7L48.1 198.8C48.1 203 51.3 204.7 52.3 205.1C53.3 205.5 56.7 206.6 59.7 203.6L96.5 168.7L134.6 16.2C136.9 7.10003 145.1 0.700026 154.5 0.700026H253.1C264.5 0.600026 273.6 9.80002 273.6 20.7ZM115.5 149.1L195.7 68.9L147.6 20.8L115.5 149.1ZM253.4 126.7L205.3 78.6L125.1 158.8L253.4 126.7ZM250.3 14.3H160.3L205.3 59.3L250.3 13.9V14.3ZM260 24L215 69L260 114V24Z" fill="white"/>
</svg>
