<?xml version="1.0" encoding="utf-8"?>
<!-- Generator: Adobe Illustrator 27.5.0, SVG Export Plug-In . SVG Version: 6.00 Build 0)  -->
<svg version="1.1" id="Capa_1" xmlns="http://www.w3.org/2000/svg" xmlns:xlink="http://www.w3.org/1999/xlink" x="0px" y="0px"
	 viewBox="0 0 300 300" style="enable-background:new 0 0 300 300;" xml:space="preserve">
<style type="text/css">
	.st0{fill:#FDFDFD;}
</style>
<g>
	<path d="M64,811c0.6-1.5,1.7-2,3.3-2c9.8,0,19.6,0,29.5,0c2.2,0,3.1,0.9,3.1,3.1c0,9.9,0,19.7,0,29.6c0,2.2-0.9,3.2-3.1,3.2
		c-9.8,0-19.6,0-29.5,0c-1.6,0-2.7-0.5-3.3-2C64,832.3,64,821.6,64,811z M81.9,839.8c4,0,8.1,0,12.1,0c0.6,0,0.8-0.1,0.8-0.8
		c0-8,0-16.1,0-24.1c0-0.6-0.1-0.8-0.8-0.8c-8.1,0-16.1,0-24.2,0c-0.6,0-0.8,0.1-0.8,0.7c0,8.1,0,16.2,0,24.2c0,0.6,0.2,0.7,0.8,0.7
		C73.9,839.8,77.9,839.8,81.9,839.8z"/>
	<path d="M107,885.9c-1.5-0.6-2-1.7-2-3.3c0-9.8,0-19.6,0-29.4c0-2.2,0.9-3.1,3.2-3.1c9.9,0,19.7,0,29.6,0c2.2,0,3.2,0.9,3.2,3.1
		c0,9.9,0,19.7,0,29.6c0,1.8-0.5,2.5-2.1,3.2C128.2,885.9,117.6,885.9,107,885.9z M110.1,868c0,4.1,0,8.1,0,12.2
		c0,0.4,0,0.7,0.6,0.7c8.2,0,16.4,0,24.6,0c0.5,0,0.6-0.2,0.6-0.6c0-8.2,0-16.3,0-24.5c0-0.5-0.2-0.6-0.6-0.6c-8.1,0-16.3,0-24.4,0
		c-0.5,0-0.7,0.2-0.6,0.7C110.2,859.9,110.1,863.9,110.1,868z"/>
	<path d="M64,852c0.6-1.5,1.7-2,3.3-2c9.8,0,19.6,0,29.4,0c2.2,0,3.2,0.9,3.2,3.1c0,9.9,0,19.7,0,29.6c0,1.8-0.5,2.5-2.1,3.2
		c-10.6,0-21.2,0-31.9,0c-0.9-0.4-1.6-1-2-2C64,873.3,64,862.6,64,852z M94.8,868c0-4,0-8.1,0-12.1c0-0.6-0.1-0.8-0.8-0.8
		c-8,0-16.1,0-24.1,0c-0.6,0-0.8,0.1-0.8,0.8c0,8.1,0,16.1,0,24.2c0,0.6,0.1,0.8,0.7,0.8c8.1,0,16.2,0,24.3,0c0.6,0,0.7-0.2,0.7-0.8
		C94.8,876,94.8,872,94.8,868z"/>
	<path class="st0" d="M64,884c0.4,0.9,1,1.6,2,2c-0.7,0-1.6,0.3-1.9-0.1C63.7,885.5,64,884.6,64,884z"/>
	<path d="M123,809c5,0,10,0,15,0c2,0,3,1,3,3c0,10,0,19.9,0,29.9c0,2-1,3-3,3c-10,0-20,0-30,0c-1.9,0-3-1-3-3c0-10,0-20,0-30
		c0-2,1-3,3-3C113,809,118,809,123,809z M123,814.1c-4,0-8,0-12,0c-0.6,0-0.8,0.1-0.8,0.8c0,8,0,16.1,0,24.1c0,0.6,0.1,0.8,0.8,0.8
		c8.1,0,16.1,0,24.2,0c0.6,0,0.8-0.1,0.7-0.7c0-8.1,0-16.1,0-24.2c0-0.6-0.1-0.8-0.8-0.8C131,814.2,127,814.1,123,814.1z"/>
</g>
<g>
	<path d="M257.3,39.7c3.9,0,7.2,3.2,7.2,7.2c0,4-3.2,7.2-7.2,7.2h-7.2v200.2h7.2c3.9,0,7.2,3.2,7.2,7.2s-3.2,7.2-7.2,7.2H42.7
		c-3.9,0-7.2-3.2-7.2-7.2s3.2-7.2,7.2-7.2h7.2V54h-7.2c-3.9,0-7.2-3.2-7.2-7.2c0-3.9,3.2-7.2,7.2-7.2H257.3z M171.5,232.8v21.5h64.4
		V54H64.2v200.2h64.4v-21.5c0-11.8,9.6-21.5,21.5-21.5C161.8,211.3,171.5,221,171.5,232.8z M78.5,82.6c0-7.9,6.4-14.3,14.3-14.3
		h14.3c7.9,0,14.3,6.4,14.3,14.3v14.3c0,7.9-6.4,14.3-14.3,14.3H92.8c-7.9,0-14.3-6.4-14.3-14.3V82.6z M107.1,125.5
		c7.9,0,14.3,6.4,14.3,14.3v14.3c0,7.9-6.4,14.3-14.3,14.3H92.8c-7.9,0-14.3-6.4-14.3-14.3v-14.3c0-7.9,6.4-14.3,14.3-14.3H107.1z
		 M107.1,82.6H92.8v14.3h14.3V82.6z M92.8,154.1h14.3v-14.3H92.8V154.1z M113.3,209.5c-3-2.6-3.2-7.2-0.6-10.1
		c9.2-10.2,22.5-16.7,37.3-16.7c14.8,0,27.8,6.4,37.3,16.7c2.6,3,2.4,7.5-0.6,10.1c-2.9,2.6-7.5,2.4-10.1-0.5
		c-6.9-7.3-16-11.9-26.6-11.9c-10.6,0-20.1,4.6-26.6,11.9C120.7,211.9,116.2,212.1,113.3,209.5z M157.2,68.3
		c7.9,0,14.3,6.4,14.3,14.3v14.3c0,7.9-6.4,14.3-14.3,14.3h-14.3c-7.9,0-14.3-6.4-14.3-14.3V82.6c0-7.9,6.4-14.3,14.3-14.3H157.2z
		 M128.5,139.8c0-7.9,6.4-14.3,14.3-14.3h14.3c7.9,0,14.3,6.4,14.3,14.3v14.3c0,7.9-6.4,14.3-14.3,14.3h-14.3
		c-7.9,0-14.3-6.4-14.3-14.3V139.8z M142.9,96.9h14.3V82.6h-14.3V96.9z M157.2,139.8h-14.3v14.3h14.3V139.8z M150,225.6
		c-3.9,0-7.2,3.2-7.2,7.2v21.5h14.3v-21.5C157.2,228.9,153.9,225.6,150,225.6z M178.6,82.6c0-7.9,6.4-14.3,14.3-14.3h14.3
		c7.9,0,14.3,6.4,14.3,14.3v14.3c0,7.9-6.4,14.3-14.3,14.3h-14.3c-7.9,0-14.3-6.4-14.3-14.3V82.6z M207.2,125.5
		c7.9,0,14.3,6.4,14.3,14.3v14.3c0,7.9-6.4,14.3-14.3,14.3h-14.3c-7.9,0-14.3-6.4-14.3-14.3v-14.3c0-7.9,6.4-14.3,14.3-14.3H207.2z
		 M207.2,82.6h-14.3v14.3h14.3V82.6z M192.9,154.1h14.3v-14.3h-14.3V154.1z"/>
</g>
</svg>
