<svg width="230" height="230" viewBox="0 0 230 230" fill="none" xmlns="http://www.w3.org/2000/svg">
<path d="M222.3 0.699978C226.2 0.699978 229.5 3.89998 229.5 7.89998C229.5 11.9 226.3 15.1 222.3 15.1H215.1V215.3H222.3C226.2 215.3 229.5 218.5 229.5 222.5C229.5 226.5 226.3 229.7 222.3 229.7H7.7C3.8 229.7 0.5 226.5 0.5 222.5C0.5 218.5 3.7 215.3 7.7 215.3H14.9V15H7.7C3.8 15 0.5 11.8 0.5 7.79998C0.5 3.89998 3.7 0.599976 7.7 0.599976H222.3V0.699978ZM136.5 193.8V215.3H200.9V15H29.2V215.2H93.6V193.7C93.6 181.9 103.2 172.2 115.1 172.2C126.8 172.3 136.5 182 136.5 193.8ZM43.5 43.6C43.5 35.7 49.9 29.3 57.8 29.3H72.1C80 29.3 86.4 35.7 86.4 43.6V57.9C86.4 65.8 80 72.2 72.1 72.2H57.8C49.9 72.2 43.5 65.8 43.5 57.9V43.6ZM72.1 86.5C80 86.5 86.4 92.9 86.4 100.8V115.1C86.4 123 80 129.4 72.1 129.4H57.8C49.9 129.4 43.5 123 43.5 115.1V100.8C43.5 92.9 49.9 86.5 57.8 86.5H72.1ZM72.1 43.6H57.8V57.9H72.1V43.6ZM57.8 115.1H72.1V100.8H57.8V115.1ZM78.3 170.5C75.3 167.9 75.1 163.3 77.7 160.4C86.9 150.2 100.2 143.7 115 143.7C129.8 143.7 142.8 150.1 152.3 160.4C154.9 163.4 154.7 167.9 151.7 170.5C148.8 173.1 144.2 172.9 141.6 170C134.7 162.7 125.6 158.1 115 158.1C104.4 158.1 94.9 162.7 88.4 170C85.7 172.9 81.2 173.1 78.3 170.5ZM122.2 29.3C130.1 29.3 136.5 35.7 136.5 43.6V57.9C136.5 65.8 130.1 72.2 122.2 72.2H107.9C100 72.2 93.6 65.8 93.6 57.9V43.6C93.6 35.7 100 29.3 107.9 29.3H122.2ZM93.5 100.8C93.5 92.9 99.9 86.5 107.8 86.5H122.1C130 86.5 136.4 92.9 136.4 100.8V115.1C136.4 123 130 129.4 122.1 129.4H107.8C99.9 129.4 93.5 123 93.5 115.1V100.8ZM107.9 57.9H122.2V43.6H107.9V57.9ZM122.2 100.8H107.9V115.1H122.2V100.8ZM115 186.6C111.1 186.6 107.8 189.8 107.8 193.8V215.3H122.1V193.8C122.2 189.9 118.9 186.6 115 186.6ZM143.6 43.6C143.6 35.7 150 29.3 157.9 29.3H172.2C180.1 29.3 186.5 35.7 186.5 43.6V57.9C186.5 65.8 180.1 72.2 172.2 72.2H157.9C150 72.2 143.6 65.8 143.6 57.9V43.6ZM172.2 86.5C180.1 86.5 186.5 92.9 186.5 100.8V115.1C186.5 123 180.1 129.4 172.2 129.4H157.9C150 129.4 143.6 123 143.6 115.1V100.8C143.6 92.9 150 86.5 157.9 86.5H172.2ZM172.2 43.6H157.9V57.9H172.2V43.6ZM157.9 115.1H172.2V100.8H157.9V115.1Z" fill="white"/>
</svg>
