<svg width="292" height="224" viewBox="0 0 292 224" fill="none" xmlns="http://www.w3.org/2000/svg">
<path d="M279.7 161.7H272.3C272.1 160.6 271.9 159.6 271.5 158.6L241.4 77.9C239.5 72.9 235.4 69.7 230.9 69.7H223.7L213.2 36.8C211.5 31.4 207.3 27.9 202.5 27.9H198.4V11.2C198.4 5.1 194.3 0 189.3 0H102.4C97.4 0 93.3 5 93.3 11.2V27.9H92C87.6 27.9 83.6 31 81.7 35.9L68.4 69.8H61C56.5 69.8 52.4 73 50.5 78L20.4 158.7C20 159.7 19.8 160.8 19.6 161.8H12.2C5.90005 161.8 0.800049 168.1 0.800049 175.7V209.2C0.800049 216.9 5.90005 223.1 12.2 223.1H96.6L102.3 224L102.4 223.1H279.7C286 223.1 291.1 216.8 291.1 209.2V175.7C291.2 168 286 161.7 279.7 161.7ZM229.6 86.4L257.7 161.7H194.5L186 86.4H229.2H229.6ZM185.6 185.4H106.7L107.5 178.4H184.9L185.6 185.4ZM109.3 161.7L110.3 152.4V153.3H182L182.9 161.7H109.3ZM163 44.6V69.7H126.4V44.6H163ZM126.4 27.9V16.7H163V27.9H126.4ZM112.8 131H179.5L180.4 139.4H111.8L112.8 131ZM177.9 117.1H114.4L115.5 107.3H176.9L177.9 117.1ZM174.4 86.4L175.2 93.4H117L117.8 86.4H174.4ZM209.1 69.7H174.4V44.6H189.4H201.1L209.1 69.7ZM184.9 27.9H174.4V16.7H184.9V27.9ZM107.1 16.7H114.9V27.9H107.1V16.7ZM93.5 44.6H102.5H114.9V69.7H83.7L93.5 44.6ZM62.4001 86.4H106.3L97.8 161.7H34.3L62.4001 86.4ZM14.5 178.4H30.9001H95.9L92.8 206.3H14.5V178.4ZM105.1 199.4H187.2L188 206.4H104.4L105.1 199.4ZM277.5 206.3H199.5L196.4 178.4H261.1H277.5V206.3Z" fill="white"/>
</svg>
