<?xml version="1.0" encoding="utf-8"?>
<!-- Generator: Adobe Illustrator 27.8.1, SVG Export Plug-In . SVG Version: 6.00 Build 0)  -->
<svg version="1.1" id="Capa_1" xmlns="http://www.w3.org/2000/svg" xmlns:xlink="http://www.w3.org/1999/xlink" x="0px" y="0px"
	 viewBox="0 0 680.9 171" style="enable-background:new 0 0 680.9 171;" xml:space="preserve">
<style type="text/css">
	.st0{fill-rule:evenodd;clip-rule:evenodd;fill:#FFFFFF;}
	.st1{fill:none;stroke:#FFFFFF;stroke-miterlimit:10;}
	.st2{fill:#FCFCFC;}
	.st3{fill:#FFFFFF;}
</style>
<g>
	<g>
		<path class="st0" d="M117.4,30.5c-5.3,0-8.8,1.8-8.8,5.3V65c0,7.2-1.5,12.5-6.4,15.9c-3.8,2.6-8.6,3.9-14.5,3.9
			c-6.1,0-11.4-0.4-14.9-3.2c-4.3-3.4-5.9-9.9-5.9-17.3V36c0-3.6-2.5-5.3-7.4-5.3V28h23.4v2.7c-5,0-6.4,1.7-6.4,5L76.7,65
			c0,5,1,8.7,2.8,11.3c2.4,3.1,5,4.6,10.5,4.6c10.5,0,13.5-5.2,13.5-16V36.2c0-3.7-1.7-5.7-7-5.7V28h20.9V30.5z"/>
		<path class="st0" d="M151.9,71.7L150.6,84h-37.5v-2.2c3.9,0,6.6-2.2,6.6-6c0-13.8,0-27.5,0-41.3c-0.8-3.5-0.7-2.5-3.8-3.3v-3.1h35
			v12.2h-2.8c-0.6-3-1.2-5.2-2.4-6.6c-1.1-1.3-2.9-2.2-5.1-2l-8.8,0.6c-2.4,0.1-2.7,1.1-2.7,3.5V50h16.6c5.5,0,4.1,4.4,0,4.5
			l-16.4,0.6l-0.1,21.2c0,1.7-0.4,2.6,0.3,3.1c0.3,0.2,1,0.3,2.2,0.3h10.1c6-1.1,7.3-3.4,8.3-8C150.1,71.7,151.9,71.7,151.9,71.7z"
			/>
		<path class="st0" d="M196.7,66.7c0,5.8-3.7,11.3-8.2,13.9c-3.2,2-7.3,3.4-12.2,3.4h-1.5v-3.8c8.1-1.6,11.1-4.7,11.1-12.7
			c0-3.9-0.8-6.4-3.8-8.5c-2-1.4-4.3-2.3-7.3-2.6v-5.3l0.9-0.1c6.7-4.5,6.6-7.3,6.6-11.2c-0.4-4.4-1.5-7.5-7.4-8.3V28
			c12,0.1,18.1,1.7,18.1,10.6c0,6.5-3.4,9.4-9,12c3.4,0.5,7.5,3.4,10,5.7C196.4,59,196.7,63.2,196.7,66.7z M174.7,84h-23.1v-2.8
			c4.8,0,7.3-1.1,7.3-4.8V35.1c0-3.6-2.5-4.3-7.3-4.3V28h21c0.7,0,1.4,0,2.1,0v3.6c-1-0.1-2.2-0.3-3.6-0.3c-1.6,0-1.9,0.1-2.4,0.3
			c-1,0.4-1.5,1.3-1.5,2.7v17.2l7.4-0.4v5.3c-1.1-0.2-2.4-0.3-3.8-0.3h-3.6V77c0,1.7,0.9,2.7,2.7,3.1c0.8,0.2,1.7,0.7,4,0.3
			c0.2,0,0.4-0.1,0.6-0.1V84H174.7z"/>
		<path class="st0" d="M235.1,71.5l-2,12.8h-39.5v-3.1c4.2,0,7.4-1.1,7.4-4.8V35.1c0-3.6-2.8-4.4-7-4.4v-3h24.2v3
			c-4.2,0-7.3,0.8-7.3,4.5v41.6c0,2.2,0.3,3.3,6.1,3.3c5.5,0,9.5-0.7,11.8-2.1c2.4-1.5,2.4-2,4.1-6.6L235.1,71.5L235.1,71.5z"/>
		<path class="st0" d="M267,48.1c0,5.8-1.7,10.7-4.3,14.6c-2.7,3.9-9,6.4-13.2,6.5v-4.6c3.2,0,3.8-0.5,5.4-3.2
			c1.8-3.2,2.3-7.5,2.3-12.5c0-5.2,0.1-8.4-1.4-11.7c-1.6-3.8-2.6-5-5.7-5h-0.6v-4.6c4.4,0,9.9,0.7,13.2,3.8
			C266.7,35.2,267,42,267,48.1z M249.5,69.1c-0.1,0-0.2,0-0.3,0c-4.4,0-10.6,0-13.4-4c-2.7-3.8-4-8.7-4-14.5c0-6,2.5-12.7,5.2-16.6
			c2.7-3.8,7.6-6.6,12-6.6c0.1,0,0.3,0,0.5,0V32c-2.9,0-3.4,0.3-5,3.6c-1.5,3.2-2.7,7.5-2.7,13.1c0,5.3,0.4,8.7,2,12
			c1.7,3.6,2.7,3.7,5.6,3.7h0.1L249.5,69.1L249.5,69.1z"/>
		<path class="st0" d="M306.2,68.5c0.3,5.2-3.1,9-6.8,12c-1.5,1.2-8.3,4-13.8,4.5c-8.5,0.7-18.5-1.7-16.2-1.9l0.1-11.3h1.8
			c3.5,9.9,7.5,9,15.6,9c2.4,0,4.8-0.6,6.7-2.2c2.2-1.7,3.2-3.9,3.2-6.9c0-4.7-2.5-7.2-8.5-10.3l-8-4.3c-6.9-3.6-11-6.9-11-12.5
			c0-4.4-0.2-8.5,5.4-12.9c3-2.4,6-4.3,10.4-4.5c8.5-0.5,12.4-0.6,18.7,1.8l-0.9,11.1h-2c-0.8-5.1-4.6-8.8-12.1-8.8
			c-2.4,0-4.9,0.8-6.5,2.2c-1.7,1.4-3.6,2.4-3.6,4.9c0,2.2,1,5.9,3,7.8c1.2,1.1,2.9,2.2,6.4,3.9l8.1,3.9
			C303.6,57.4,305.7,58.8,306.2,68.5z"/>
		<path class="st0" d="M87.1,152.4l-14.8-0.6c-3.6-0.1-3-28.5-6-47C61,120,54.8,135.4,49.6,150.4c-1.8,0.9-3.4,1.1-5.3,0.1l-18-46.9
			l-1.7,40.6c-0.1,3.4,1.7,5.9,6.6,5.9v1.6L12.9,152l0.4-2.5c5,0,6.2-1.6,6.4-5.3l2.9-40.1c0.3-3.6-1.4-5.2-6.4-5.2l0.3-3.1
			l16.8-0.4l16.5,42.1l15.7-41l17.3-0.6l-0.1,3.4c-4,0.6-6.1,0.1-5.9,2.5l2.1,39.8c0.4,7.3,4,7.8,8.5,7.8L87.1,152.4z"/>
		<path class="st0" d="M120.2,89.3c0,0.6-1.7,1.6-3.8,2l-9.9,2.2l-4-0.3l8.6-4.8c1.9-1.1,4-1.1,5.6-0.8
			C117.2,87.7,120.2,89.1,120.2,89.3z"/>
		<path class="st0" d="M165.9,148.5c-6.7,3.9-14.7,5.5-19.6,5.5c-7.8,0-13.9-2.9-18.5-8.9c-4.1-5.3-6.2-11.8-6.2-19.7
			c0-8.5,2.1-13.6,6.7-19.2c4.5-5.5,10.1-9.4,16.7-10.6c6.2-1.2,10.1-1.8,18.7,1.7l-0.4,10.8h-1.7c-2.7-9.7-11.2-7.8-14.8-7.8
			c-5.2,0-8.7,3.9-11.6,8.9c-2.7,4.6-2.7,10.2-2.7,17.8c0,7.3,1.5,10.8,4.6,15.7c3.1,4.8,6.4,6.4,11.7,6.4c2.2,0,8.1-1.5,8.3-5.8
			l0.1-5.5c0.1-3.8,0.9-5.9-8-5.9V129h17.7L165.9,148.5z"/>
		<path class="st0" d="M193.9,151.5h-25v-2c5.5,0,7.4-1.5,7.4-5.2v-40c0-3.6-2-5.5-7.4-5.5v-2.9h25v2.9c-5.5,0-8.2,1.8-8.2,5.5v40
			c0,3.8,2.7,5.2,8.2,5.2V151.5z"/>
		<path class="st0" d="M235.8,146.9c-7.3,4.6-12.6,6.1-20.3,6.1c-3.6,0-11.7-2.1-16.1-7.8c-4.3-5.3-4.6-12.9-4.6-21.1
			c0-8,1.5-13.9,6.1-19.6c4.6-5.6,7.6-7.1,14.1-8.5c6.4-1.4,14.8-1,20.4,0c2.5,3.1-0.7,7.7-0.1,12c-0.6,1.2-1.2,1.2-1.8,0
			c-1.1-5.8-4.6-8.3-13.6-8.3c-5.5,0-8,1.3-11,6.2c-2.8,4.6-4.2,10.8-4.2,18.3c0,7.3,1.8,13.3,4.9,18c3.1,4.6,7.4,5.9,11.2,6
			c4.2,0.1,9-0.8,14-4C236.9,143.6,237.2,144.8,235.8,146.9z"/>
		<path class="st0" d="M266.2,76c-2.2,3.7-5.9,8-8.7,8c-1.3,0-2.5-0.3-3.6-0.8c-1.8-0.8-3.6-1.5-5.3-2.3c-0.8-0.3-1.7-0.5-2.7-0.5
			c-1.1,0-2.1,0.3-2.9,1c-0.7,0.7-2.3,1.1-3.4,2.9c-0.8-0.7-1.5-1.4-2.3-2.1c2.3-3.9,5.7-7.1,8.3-7.9c1.1-0.3,3.1-0.4,4.2,0.1
			c2,0.8,5,1.7,6.9,2.5c0.8,0.3,1.7,0.4,2.5,0.4c2,0,2.3-0.9,4.8-3.3C264.6,74.6,265.6,75.3,266.2,76z"/>
		<path class="st0" d="M61.8,42.5c-0.9,5.3-3.6,9.6-8.5,12.5c-4.1,2.4-7.3,3.1-12.7,2.8l-2.8-0.1v-3.4c1-0.6,2.7-0.4,3.2-0.5
			c8.9-1.5,10.4-3.8,10.4-12.2s-4.2-9.7-14.6-9.7c-1.3,0-2.2,0.1-2.5,0.4c-0.6,0.4-0.8,1.5-0.8,3.1c0,14.8-0.2,27.8-0.2,42.5
			c0,3.5,4,3.2,9,3.2V84H17.2v-2.9c5,0,7.5,0.1,7.5-3.6L24.6,35c0-1.8-0.1-2.2-1.1-3c-1.1-1-3.1-1.4-6-1.4l-0.3-2.7h22.6
			c6.8,0,13.4,0.4,17.1,2.8C61,33.6,61.8,37.2,61.8,42.5z"/>
		<path class="st0" d="M272.3,116.4c0,5.8-1.7,10.7-4.3,14.6c-2.7,3.9-9,6.4-13.2,6.5v-4.6c3.2,0,3.8-0.5,5.4-3.2
			c1.8-3.2,2.3-7.5,2.3-12.5c0-5.2,0.1-8.4-1.4-11.7c-1.6-3.8-2.6-5-5.7-5h-0.6v-4.6c4.4,0,9.9,0.7,13.2,3.8
			C272,103.6,272.3,110.4,272.3,116.4z M254.7,137.5c-0.1,0-0.2,0-0.3,0c-4.4,0-10.6,0-13.4-4c-2.7-3.8-4-8.7-4-14.5
			c0-6,2.5-12.7,5.3-16.6c2.7-3.8,7.6-6.6,11.9-6.6c0.2,0,0.3,0,0.5,0v4.6c-2.9,0-3.4,0.3-5,3.6c-1.5,3.2-2.7,7.5-2.7,13.1
			c0,5.3,0.4,8.7,2,12c1.7,3.6,2.7,3.7,5.6,3.7h0.1V137.5z"/>
		<path class="st0" d="M269.7,144.7c-2.2,3.7-5.9,8-8.6,8c-1.3,0-2.5-0.3-3.6-0.8c-1.8-0.8-3.6-1.5-5.3-2.3
			c-0.8-0.3-1.7-0.5-2.7-0.5c-1.1,0-2,0.3-2.8,1s-2.4,1.1-3.4,2.9c-0.8-0.7-1.5-1.4-2.3-2.1c2.3-3.9,5.7-7.1,8.2-7.8
			c1.1-0.3,3.2-0.4,4.2,0.1c2,0.8,5,1.7,6.9,2.5c0.8,0.3,1.7,0.4,2.5,0.4c2,0,2.3-0.9,4.8-3.2C268.2,143.4,269.1,144,269.7,144.7z"
			/>
		<path class="st0" d="M120.2,144.7c-2.2,3.7-5.9,8-8.6,8c-1.3,0-2.5-0.3-3.6-0.8c-1.8-0.8-3.6-1.5-5.3-2.3
			c-0.8-0.3-1.7-0.5-2.7-0.5c-1.1,0-2,0.3-2.8,1s-2.4,1.1-3.4,2.9c-0.8-0.7-1.5-1.4-2.3-2.1c2.3-3.9,5.7-7.1,8.2-7.8
			c1.1-0.3,3.2-0.4,4.2,0.1c2,0.8,5,1.7,6.9,2.5c0.8,0.3,1.7,0.4,2.5,0.4c2,0,2.3-0.9,4.8-3.2C118.7,143.4,119.6,144,120.2,144.7z"
			/>
		<path class="st0" d="M311.3,137.4c0.3,5.3-3.1,9-6.8,12c-1.5,1.1-8.3,3.9-13.8,4.4c-8.5,0.7-18.5-1.6-16.2-1.9l0.1-11.3h1.8
			c3.6,9.9,7.6,9,15.6,9c2.5,0,4.8-0.6,6.7-2.2c2.2-1.7,3.2-3.9,3.2-6.7c0-4.7-2.5-7.2-8.4-10.3l-8.1-4.3c-6.9-3.6-11-6.9-11-12.5
			c0-4.3-0.2-8.4,5.3-12.9c3.1-2.4,6-4.3,10.5-4.6c8.5-0.4,12.4-0.5,18.7,1.8L308,109h-2c-0.8-5.2-4.6-8.8-12-8.8
			c-2.4,0-4.9,0.7-6.6,2.2c-1.6,1.4-3.6,2.4-3.6,4.9c0,2.2,1,5.9,3.1,7.8c1.2,1.1,2.9,2.2,6.4,3.9l8.1,3.9
			C308.7,126.3,310.8,127.7,311.3,137.4z"/>
		<path class="st0" d="M106.3,127c-1.3,2-3.8,5.2-7.1,7.5v-5.7c1.3-0.7,2.5-1.9,3.8-3.8c2.9-3.2,3.9-16.2,3.9-20.7
			c0.4-2.9-2.4-3.4-6.4-3.2c-0.4,0.1-1,0.3-1.4,0.4v-5.3c0.5-0.1,1.1-0.2,1.6-0.3c8-0.4,13.4,0.1,18.7,2.2c-1,2.9-3.1,2.7-3.8,5.6
			c-2.5,10.6-1.3,23.1,1.9,32.2l-7.7,1.3C105.4,136.8,107.4,130.1,106.3,127z M99.2,134.5c-2,1.5-4.3,2.7-6.8,3.1
			c-7.9,1.3-8.7-7.1-8.8-12.9v-0.5c0-1.1,0.1-2.2,0.1-3c0-5.8,1.7-13.1,5-17.5c2.8-3.8,6.8-6.7,10.6-7.6v5.3c-2.8,0.9-4.8,2.5-6,5.6
			c-1.8,8.6-3.1,13.1,0.7,21c1.5,1.5,3.3,1.8,5.3,0.7v5.8H99.2z"/>
	</g>
	<line class="st1" x1="342.6" y1="30.7" x2="342.6" y2="143"/>
	<g>
		<g>
			<path class="st2" d="M422.5,104.1V69.6l-13.3,34.6h-10.4l-12.2-34.6v34.6h-11.4V55.7H394l10.6,31l10.6-31H434v48.4H422.5z"/>
			<path class="st2" d="M449.7,85c0.6,5.3,4.4,8.9,10.4,8.9c3.8,0,7.8-1.7,10.6-4.9l8.4,7.2c-5.1,5.9-11.6,8.5-18.8,8.5
				c-14.1,0-22.6-9.3-22.6-25.3c0-14.2,8.9-24.3,21.3-24.3c12.5,0,20.9,8.5,20.9,22V85H449.7L449.7,85z M458.8,66.2
				c-4.6,0-8.5,3.6-9.1,8h17.9C467,70.3,464.5,66.2,458.8,66.2z M461.7,52.3l-9.9-4.6l6.1-13.1l9.9,4.6L461.7,52.3z"/>
			<path class="st2" d="M510.8,104.1l-9.3-14.4l-9.3,14.4h-13.7L495,79.4l-15.8-23.7h13.7l8.5,14.1l8.5-14.1h13.7l-15.8,23.7
				l16.7,24.7C524.5,104.1,510.8,104.1,510.8,104.1z"/>
			<path class="st2" d="M527.6,104.1V55.7H539v48.4C539,104.1,527.6,104.1,527.6,104.1z"/>
			<path class="st2" d="M575.4,72c-3-3.6-5.9-5.3-9.5-5.3c-7,0-10.6,4.6-10.6,13.3s3.6,13.3,10.6,13.3c4.2,0,7.4-2.1,9.5-5.3
				l8.5,7.6c-4.4,5.7-10.6,9.3-18,9.3c-14.2,0-22.4-8.9-22.4-24.7c0-15.2,8.5-24.7,22.4-24.7c7.8,0,13.3,3.2,18,9.1L575.4,72z"/>
			<path class="st2" d="M606.4,104.7c-13.7,0-22.2-9.5-22.2-24.7c0-14.6,9.1-24.7,22.2-24.7s22,10.1,22,24.7
				C628.6,95.2,620,104.7,606.4,104.7z M606.4,65.6c-7.2,0-10.4,7.2-10.4,14.2c0,6.6,2.7,14.6,10.4,14.6s10.4-7.8,10.4-14.6
				C616.8,72.8,613.6,65.6,606.4,65.6z"/>
		</g>
		<g>
			<g>
				<path class="st3" d="M379.8,125.6c0-9.5,6.8-18.8,14.1-18.8c3,0,4.6,1.9,4.7,3l1.1-9.9h9.1l-4,33.4h-9.5l0.8-5.9h-0.2
					c-1.9,3.6-4.6,6.5-8.9,6.5C382.3,134.1,379.8,131.3,379.8,125.6z M397.7,115.9c0-2.5-0.6-3.8-2.1-3.8c-3,0-6.3,6.6-6.3,12.3
					c0,2.5,0.6,3.8,2.1,3.8C394.4,128.3,397.7,121.6,397.7,115.9z"/>
				<path class="st3" d="M427.9,125l4.9,3c-2.5,4.2-6.6,6.1-11.8,6.1c-8.4,0-11.6-4.7-11.6-10.8c0-10.1,6.8-16.5,15.4-16.5
					c5.1,0,9.9,2.1,9.9,6.8c0,7.6-10.4,8.9-16,9.3v0.6c0,3,1.1,4.9,3.8,4.9C424.8,128.4,426.5,126.7,427.9,125z M418.9,119.3
					c4.7-0.4,7-3,7-5.7c0-1.3-0.6-2.1-1.7-2.1C422,111.7,419.7,114.8,418.9,119.3z"/>
				<path class="st3" d="M434.3,128.1l5.1-3c1.7,2.3,4,3.2,5.7,3.2c1.1,0,2.1-0.6,2.1-1.5c0-1.1-1.5-2.1-3.4-3.2
					c-2.8-1.7-6.6-4-6.6-8.4s4-8.5,10.6-8.5c3.8,0,7.8,1.3,10.3,4.7l-5.1,3c-1.5-1.7-3-2.1-4.7-2.1c-1.3,0-2.5,0.6-2.5,1.5
					s1.3,1.7,3,2.7c3,1.9,7.2,4.4,7.2,9.5c0,4-3,8-10.1,8C440,134,436.2,131.3,434.3,128.1z"/>
				<path class="st3" d="M458.6,122.9c0-9.5,5.9-16.3,14.8-16.3c4.7,0,8.2,2.1,9.9,5.5l-5.3,3c-0.8-1.7-1.7-2.8-3.6-2.8
					c-3.6,0-5.9,4.4-5.9,11c0,3.4,0.9,4.9,3,4.9c2.5,0,4-1.9,5.1-3.6l5.1,3c-2.3,3.8-5.9,6.3-11,6.3
					C461.3,134.1,458.6,128.1,458.6,122.9z"/>
				<path class="st3" d="M483.3,122.6c0-8.5,5.3-16,15.6-16c7,0,11.8,3.4,11.8,11.4c0,8.5-5.3,16-15.8,16
					C488.1,134.1,483.3,130.7,483.3,122.6z M501,117.1c0-3.6-0.9-5.3-2.7-5.3c-3,0-5.3,5.3-5.3,12.2c0,3.6,0.9,5.3,2.7,5.3
					C498.7,129.2,501,123.7,501,117.1z"/>
				<path class="st3" d="M515.8,107.6h9.5l-2.7,13.9h0.2c3.6-12.3,8-14.6,11.4-14.6c5.1,0,7.2,3.8,6.5,9.9l-2.1,16.7h-9.5l1.7-15
					c0.2-2.1,0.2-4.2-1.5-4.2c-3.4,0-5.7,9.3-7.2,19h-9.5L515.8,107.6z"/>
				<path class="st3" d="M543.1,122.6c0-8.5,5.3-16,15.6-16c7,0,11.8,3.4,11.8,11.4c0,8.5-5.3,16-15.8,16
					C547.9,134.1,543.1,130.7,543.1,122.6z M560.8,117.1c0-3.6-0.9-5.3-2.7-5.3c-3,0-5.3,5.3-5.3,12.2c0,3.6,0.9,5.3,2.7,5.3
					C558.5,129.2,560.8,123.7,560.8,117.1z"/>
				<path class="st3" d="M572.8,122.9c0-9.5,5.9-16.3,14.8-16.3c4.7,0,8.2,2.1,9.9,5.5l-5.3,3c-0.8-1.7-1.7-2.8-3.6-2.8
					c-3.6,0-5.9,4.4-5.9,11c0,3.4,0.9,4.9,3,4.9c2.5,0,4-1.9,5.1-3.6l5.1,3c-2.3,3.8-5.9,6.3-11,6.3
					C575.4,134.1,572.8,128.1,572.8,122.9z"/>
				<path class="st3" d="M606.9,133.4h-9.5l3-26h9.5L606.9,133.4z M600.7,100c0-3.2,2.7-5.3,5.7-5.3c2.7,0,5.1,1.7,5.1,4.7
					c0,3.2-2.7,5.3-5.7,5.3C603.1,104.5,600.7,102.8,600.7,100z"/>
				<path class="st3" d="M611.1,125.6c0-9.5,6.8-18.8,14.1-18.8c3,0,4.6,1.9,4.7,3l1.1-9.9h9.1l-4,33.6h-9.5l0.8-5.9h-0.2
					c-1.9,3.6-4.6,6.5-8.9,6.5C613.8,134.1,611.1,131.3,611.1,125.6z M629.2,115.9c0-2.5-0.6-3.8-2.1-3.8c-3,0-6.3,6.6-6.3,12.3
					c0,2.5,0.6,3.8,2.1,3.8C625.9,128.3,629.2,121.6,629.2,115.9z"/>
				<path class="st3" d="M640.6,122.6c0-8.5,5.3-16,15.6-16c7,0,11.8,3.4,11.8,11.4c0,8.5-5.3,16-15.8,16
					C645.3,134.1,640.6,130.7,640.6,122.6z M658.4,117.1c0-3.6-0.9-5.3-2.7-5.3c-3,0-5.3,5.3-5.3,12.2c0,3.6,0.9,5.3,2.7,5.3
					C655.9,129.2,658.4,123.7,658.4,117.1z"/>
			</g>
			<g>
				<path class="st3" d="M646.8,102.4c0,1.3-1.1,2.5-2.5,2.5s-2.5-1.1-2.5-2.5s1.1-2.5,2.5-2.5S646.8,100.9,646.8,102.4z
					 M642.3,102.4c0,1.1,0.9,2.1,2.1,2.1s2.1-0.9,2.1-2.1s-0.9-2.1-2.1-2.1S642.3,101.3,642.3,102.4z M645.3,101.9
					c0,0.4-0.4,0.8-0.6,0.8l0.8,1.1h-0.6l-0.6-1.1h-0.6v1.1h-0.4V101h1.1C645.1,100.9,645.3,101.3,645.3,101.9z M643.8,101.3v0.9
					h0.6c0.4,0,0.6-0.2,0.6-0.6s-0.2-0.4-0.6-0.4L643.8,101.3L643.8,101.3z"/>
			</g>
		</g>
	</g>
</g>
</svg>
