<?xml version="1.0" encoding="utf-8"?>
<!-- Generator: Adobe Illustrator 27.5.0, SVG Export Plug-In . SVG Version: 6.00 Build 0)  -->
<svg version="1.1" id="Capa_1" xmlns="http://www.w3.org/2000/svg" xmlns:xlink="http://www.w3.org/1999/xlink" x="0px" y="0px"
	 viewBox="0 0 300 300" style="enable-background:new 0 0 300 300;" xml:space="preserve">
<style type="text/css">
	.st0{fill:#FDFDFD;}
	.st1{fill:#C48800;}
</style>
<g>
	<path d="M64,811c0.6-1.5,1.7-2,3.3-2c9.8,0,19.6,0,29.5,0c2.2,0,3.1,0.9,3.1,3.1c0,9.9,0,19.7,0,29.6c0,2.2-0.9,3.2-3.1,3.2
		c-9.8,0-19.6,0-29.5,0c-1.6,0-2.7-0.5-3.3-2C64,832.3,64,821.6,64,811z M81.9,839.8c4,0,8.1,0,12.1,0c0.6,0,0.8-0.1,0.8-0.8
		c0-8,0-16.1,0-24.1c0-0.6-0.1-0.8-0.8-0.8c-8.1,0-16.1,0-24.2,0c-0.6,0-0.8,0.1-0.8,0.7c0,8.1,0,16.2,0,24.2c0,0.6,0.2,0.7,0.8,0.7
		C73.9,839.8,77.9,839.8,81.9,839.8z"/>
	<path d="M107,885.9c-1.5-0.6-2-1.7-2-3.3c0-9.8,0-19.6,0-29.4c0-2.2,0.9-3.1,3.2-3.1c9.9,0,19.7,0,29.6,0c2.2,0,3.2,0.9,3.2,3.1
		c0,9.9,0,19.7,0,29.6c0,1.8-0.5,2.5-2.1,3.2C128.2,885.9,117.6,885.9,107,885.9z M110.1,868c0,4.1,0,8.1,0,12.2
		c0,0.4,0,0.7,0.6,0.7c8.2,0,16.4,0,24.6,0c0.5,0,0.6-0.2,0.6-0.6c0-8.2,0-16.3,0-24.5c0-0.5-0.2-0.6-0.6-0.6c-8.1,0-16.3,0-24.4,0
		c-0.5,0-0.7,0.2-0.6,0.7C110.2,859.9,110.1,863.9,110.1,868z"/>
	<path d="M64,852c0.6-1.5,1.7-2,3.3-2c9.8,0,19.6,0,29.4,0c2.2,0,3.2,0.9,3.2,3.1c0,9.9,0,19.7,0,29.6c0,1.8-0.5,2.5-2.1,3.2
		c-10.6,0-21.2,0-31.9,0c-0.9-0.4-1.6-1-2-2C64,873.3,64,862.6,64,852z M94.8,868c0-4,0-8.1,0-12.1c0-0.6-0.1-0.8-0.8-0.8
		c-8,0-16.1,0-24.1,0c-0.6,0-0.8,0.1-0.8,0.8c0,8.1,0,16.1,0,24.2c0,0.6,0.1,0.8,0.7,0.8c8.1,0,16.2,0,24.3,0c0.6,0,0.7-0.2,0.7-0.8
		C94.8,876,94.8,872,94.8,868z"/>
	<path class="st0" d="M64,884c0.4,0.9,1,1.6,2,2c-0.7,0-1.6,0.3-1.9-0.1C63.7,885.5,64,884.6,64,884z"/>
	<path d="M123,809c5,0,10,0,15,0c2,0,3,1,3,3c0,10,0,19.9,0,29.9c0,2-1,3-3,3c-10,0-20,0-30,0c-1.9,0-3-1-3-3c0-10,0-20,0-30
		c0-2,1-3,3-3C113,809,118,809,123,809z M123,814.1c-4,0-8,0-12,0c-0.6,0-0.8,0.1-0.8,0.8c0,8,0,16.1,0,24.1c0,0.6,0.1,0.8,0.8,0.8
		c8.1,0,16.1,0,24.2,0c0.6,0,0.8-0.1,0.7-0.7c0-8.1,0-16.1,0-24.2c0-0.6-0.1-0.8-0.8-0.8C131,814.2,127,814.1,123,814.1z"/>
</g>
<g>
	<path class="st1" d="M150.4,50c4.5,23.9,6.7,41.3,6.7,52.1c0,11.4-2.8,21.4-8.5,30.1c-5.7,8.7-13.5,15.3-23.3,19.7l4.9,94.2
		c0.3,5.1-1.2,9.4-4.5,13c-3.3,3.6-7.5,5.4-12.6,5.4H86.3c-5.1,0-9.3-1.8-12.6-5.4c-3.3-3.6-4.8-7.9-4.5-13l4.9-94.2
		c-9.9-4.5-17.7-11.1-23.3-19.7c-5.7-8.7-8.5-18.7-8.5-30.1C42.3,91.3,44.5,74,49,50c0.6-3,1.8-5.6,3.6-7.9c1.8-2.2,4.2-4,7.2-5.4
		c3-1.3,6.3-2,9.9-2c6,0,11.1,1.6,15.3,4.9c3.9-3.3,8.8-4.9,14.8-4.9c6,0,10.9,1.6,14.8,4.9c4.2-3.3,9.3-4.9,15.3-4.9
		c5.4,0,9.9,1.4,13.7,4.3C147.2,41.9,149.6,45.5,150.4,50z M110.5,142.5c9.9-2.1,17.7-6.7,23.6-13.9c5.8-7.2,8.8-16,8.8-26.5
		c0-1.8-0.2-4.1-0.4-7c-0.3-2.8-0.6-5.8-0.9-8.8c-0.3-3-0.8-6.1-1.3-9.4c-0.6-3.3-1.1-6.4-1.6-9.2c-0.4-2.8-0.8-5.5-1.1-7.9
		c-0.3-2.4-0.6-4.2-0.9-5.4l-0.4-2.2c-0.3-2.1-2.5-3.1-6.5-3.1s-6.2,1.2-6.5,3.6v54.8c-0.3,2.7-2.5,4-6.7,4c-4.2,0-6.4-1.3-6.7-4
		l-3.1-55.2c-0.6-2.1-2.9-3.1-7-3.1s-6.2,1.1-6.5,3.1l-3.1,55.2c-0.3,2.7-2.5,4-6.7,4c-4.2,0-6.4-1.3-6.7-4V52.7
		c-0.3-2.4-2.5-3.6-6.5-3.6s-6.2,1.1-6.5,3.1c-4.5,24.2-6.7,40.8-6.7,49.8c0,10.5,2.9,19.3,8.8,26.5c5.8,7.2,13.7,11.8,23.6,13.9
		l-5.4,104.6c-0.3,2.1,0.6,3.1,2.7,3.1h26.9c2.1,0,3-1.1,2.7-3.1L110.5,142.5z M196.7,245.7l6.3-73.6
		c-20.9-16.8-31.4-36.2-31.4-58.3c0-10.2,2.2-20.2,6.7-30.1c4.5-9.9,10-18.3,16.6-25.4c6.6-7,13.9-12.7,22-17.1
		c8.1-4.3,15.7-6.5,22.9-6.5c5.1,0,9.3,1.7,12.8,5.2c3.4,3.4,5.2,7.4,5.2,11.9v195.7c0,4.5-1.7,8.4-5.2,11.9
		c-3.4,3.4-7.7,5.2-12.8,5.2h-25.1c-5.1,0-9.4-1.9-13-5.6C198,255.2,196.4,250.8,196.7,245.7z M185.9,113.8
		c0,18.6,10.8,35.6,32.3,51.2l-7.2,82.1c-0.3,2.1,0.9,3.1,3.6,3.1h25.1c2.4,0,3.6-0.9,3.6-2.7V51.8c0-1.8-1.2-2.7-3.6-2.7
		c-11.1,0-22.8,6.7-35.2,20C192.1,82.4,185.9,97.3,185.9,113.8z"/>
</g>
</svg>
