<svg width="216" height="231" viewBox="0 0 216 231" fill="none" xmlns="http://www.w3.org/2000/svg">
<path d="M108.4 16C112.9 39.9 115.1 57.3 115.1 68.1C115.1 79.5 112.3 89.5 106.6 98.2C100.9 106.9 93.1 113.5 83.3 117.9L88.2 212.1C88.5 217.2 87 221.5 83.7 225.1C80.4 228.7 76.2001 230.5 71.1001 230.5H44.3001C39.2001 230.5 35 228.7 31.7 225.1C28.4 221.5 26.9 217.2 27.2 212.1L32.1 117.9C22.2 113.4 14.4 106.8 8.80005 98.2C3.10005 89.5 0.300049 79.5 0.300049 68.1C0.300049 57.3 2.50005 40 7.00005 16C7.60005 13 8.80005 10.4 10.6 8.10001C12.4 5.90001 14.8 4.10001 17.8 2.70001C20.8 1.40001 24.1 0.700012 27.7 0.700012C33.7 0.700012 38.8 2.30001 43 5.60001C46.9 2.30001 51.8001 0.700012 57.8001 0.700012C63.8001 0.700012 68.7001 2.30001 72.6001 5.60001C76.8001 2.30001 81.9 0.700012 87.9 0.700012C93.3 0.700012 97.8001 2.10001 101.6 5.00001C105.2 7.90001 107.6 11.5 108.4 16ZM68.5 108.5C78.4 106.4 86.2001 101.8 92.1001 94.6C97.9001 87.4 100.9 78.6 100.9 68.1C100.9 66.3 100.7 64 100.5 61.1C100.2 58.3 99.9001 55.3 99.6001 52.3C99.3001 49.3 98.8 46.2 98.3 42.9C97.7 39.6 97.2 36.5 96.7 33.7C96.3 30.9 95.9001 28.2 95.6001 25.8C95.3001 23.4 95 21.6 94.7 20.4L94.3 18.2C94 16.1 91.8 15.1 87.8 15.1C83.8 15.1 81.6 16.3 81.3 18.7V73.5C81 76.2 78.8001 77.5 74.6001 77.5C70.4001 77.5 68.2001 76.2 67.9001 73.5L64.8 18.3C64.2 16.2 61.9001 15.2 57.8001 15.2C53.7001 15.2 51.6001 16.3 51.3001 18.3L48.2 73.5C47.9 76.2 45.7 77.5 41.5 77.5C37.3 77.5 35.1001 76.2 34.8001 73.5V18.7C34.5001 16.3 32.3001 15.1 28.3001 15.1C24.3001 15.1 22.1 16.2 21.8 18.2C17.3 42.4 15.1 59 15.1 68C15.1 78.5 18.0001 87.3 23.9001 94.5C29.7001 101.7 37.6 106.3 47.5 108.4L42.1 213C41.8 215.1 42.7001 216.1 44.8001 216.1H71.7C73.8 216.1 74.7001 215 74.4001 213L68.5 108.5ZM154.7 211.7L161 138.1C140.1 121.3 129.6 101.9 129.6 79.8C129.6 69.6 131.8 59.6 136.3 49.7C140.8 39.8 146.3 31.4 152.9 24.3C159.5 17.3 166.8 11.6 174.9 7.20001C183 2.90001 190.6 0.700012 197.8 0.700012C202.9 0.700012 207.1 2.40001 210.6 5.90001C214 9.30001 215.8 13.3 215.8 17.8V213.5C215.8 218 214.1 221.9 210.6 225.4C207.2 228.8 202.9 230.6 197.8 230.6H172.7C167.6 230.6 163.3 228.7 159.7 225C156 221.2 154.4 216.8 154.7 211.7ZM143.9 79.8C143.9 98.4 154.7 115.4 176.2 131L169 213.1C168.7 215.2 169.9 216.2 172.6 216.2H197.7C200.1 216.2 201.3 215.3 201.3 213.5V17.8C201.3 16 200.1 15.1 197.7 15.1C186.6 15.1 174.9 21.8 162.5 35.1C150.1 48.4 143.9 63.3 143.9 79.8Z" fill="white"/>
</svg>
