<?xml version="1.0" encoding="utf-8"?>
<!-- Generator: Adobe Illustrator 27.5.0, SVG Export Plug-In . SVG Version: 6.00 Build 0)  -->
<svg version="1.1" id="Capa_1" xmlns="http://www.w3.org/2000/svg" xmlns:xlink="http://www.w3.org/1999/xlink" x="0px" y="0px"
	 viewBox="0 0 300 300" style="enable-background:new 0 0 300 300;" xml:space="preserve">
<style type="text/css">
	.st0{fill:#C48800;}
	.st1{fill:#FDFDFD;}
</style>
<g>
	<path class="st0" d="M182.9,41.7c9,0,15.1,4.2,18.4,12.6l6.8,18.4h42.5c6.4,0,11.9,2.3,16.4,6.8c4.5,4.5,6.8,10,6.8,16.4v139.2
		c0,6.5-2.3,11.9-6.8,16.4c-4.5,4.5-10,6.8-16.4,6.8H49.4c-6.5,0-11.9-2.3-16.4-6.8c-4.5-4.5-6.8-10-6.8-16.4V95.9
		c0-6.4,2.3-11.9,6.8-16.4c4.5-4.5,10-6.8,16.4-6.8H92l5.8-16c1.9-4.5,4.8-8.1,8.7-10.9c3.9-2.7,8.2-4.1,13.1-4.1H182.9z
		 M182.9,57.2h-63.3c-3.6,0-6,1.6-7.3,4.8l-9.7,26.1H49.4c-2.3,0-4.1,0.7-5.6,2.2s-2.2,3.3-2.2,5.6v139.2c0,2.3,0.7,4.1,2.2,5.6
		c1.5,1.5,3.3,2.2,5.6,2.2h201.1c2.3,0,4.1-0.7,5.6-2.2c1.5-1.4,2.2-3.3,2.2-5.6V95.9c0-2.3-0.7-4.1-2.2-5.6s-3.3-2.2-5.6-2.2h-53.2
		l-10.6-28.5C186.1,58,184.8,57.2,182.9,57.2z M191.1,206.6c-11.3,11.3-25,16.9-41.1,16.9c-16.1,0-29.8-5.6-41.1-16.9
		c-11.3-11.3-16.9-25-16.9-41.1c0-16.1,5.6-29.8,16.9-41.1c11.3-11.3,25-16.9,41.1-16.9c16.1,0,29.8,5.6,41.1,16.9
		c11.3,11.3,16.9,25,16.9,41.1C208,181.6,202.4,195.3,191.1,206.6z M180,135.5c-8.4-8.4-18.4-12.6-30-12.6s-21.6,4.2-30,12.6
		c-8.4,8.4-12.6,18.4-12.6,30c0,11.6,4.2,21.6,12.6,30c8.4,8.4,18.4,12.6,30,12.6s21.6-4.2,30-12.6c8.4-8.4,12.6-18.4,12.6-30
		C192.5,153.9,188.4,143.9,180,135.5z M134.5,165.5c0,2.3-0.7,4.1-2.2,5.6c-1.5,1.4-3.3,2.2-5.6,2.2c-2.3,0-4.1-0.7-5.6-2.2
		c-1.5-1.5-2.2-3.3-2.2-5.6c0-8.4,3.1-15.6,9.2-21.8c6.1-6.1,13.4-9.2,21.8-9.2c2.3,0,4.1,0.7,5.6,2.2c1.5,1.5,2.2,3.3,2.2,5.6
		c0,2.3-0.7,4.1-2.2,5.6s-3.3,2.2-5.6,2.2c-4.2,0-7.8,1.5-10.9,4.6C136.1,157.7,134.5,161.3,134.5,165.5z"/>
</g>
<g>
	<path d="M64,811c0.6-1.5,1.7-2,3.3-2c9.8,0,19.6,0,29.5,0c2.2,0,3.1,0.9,3.1,3.1c0,9.9,0,19.7,0,29.6c0,2.2-0.9,3.2-3.1,3.2
		c-9.8,0-19.6,0-29.5,0c-1.6,0-2.7-0.5-3.3-2C64,832.3,64,821.6,64,811z M81.9,839.8c4,0,8.1,0,12.1,0c0.6,0,0.8-0.1,0.8-0.8
		c0-8,0-16.1,0-24.1c0-0.6-0.1-0.8-0.8-0.8c-8.1,0-16.1,0-24.2,0c-0.6,0-0.8,0.1-0.8,0.7c0,8.1,0,16.2,0,24.2c0,0.6,0.2,0.7,0.8,0.7
		C73.9,839.8,77.9,839.8,81.9,839.8z"/>
	<path d="M107,885.9c-1.5-0.6-2-1.7-2-3.3c0-9.8,0-19.6,0-29.4c0-2.2,0.9-3.1,3.2-3.1c9.9,0,19.7,0,29.6,0c2.2,0,3.2,0.9,3.2,3.1
		c0,9.9,0,19.7,0,29.6c0,1.8-0.5,2.5-2.1,3.2C128.2,885.9,117.6,885.9,107,885.9z M110.1,868c0,4.1,0,8.1,0,12.2
		c0,0.4,0,0.7,0.6,0.7c8.2,0,16.4,0,24.6,0c0.5,0,0.6-0.2,0.6-0.6c0-8.2,0-16.3,0-24.5c0-0.5-0.2-0.6-0.6-0.6c-8.1,0-16.3,0-24.4,0
		c-0.5,0-0.7,0.2-0.6,0.7C110.2,859.9,110.1,863.9,110.1,868z"/>
	<path d="M64,852c0.6-1.5,1.7-2,3.3-2c9.8,0,19.6,0,29.4,0c2.2,0,3.2,0.9,3.2,3.1c0,9.9,0,19.7,0,29.6c0,1.8-0.5,2.5-2.1,3.2
		c-10.6,0-21.2,0-31.9,0c-0.9-0.4-1.6-1-2-2C64,873.3,64,862.6,64,852z M94.8,868c0-4,0-8.1,0-12.1c0-0.6-0.1-0.8-0.8-0.8
		c-8,0-16.1,0-24.1,0c-0.6,0-0.8,0.1-0.8,0.8c0,8.1,0,16.1,0,24.2c0,0.6,0.1,0.8,0.7,0.8c8.1,0,16.2,0,24.3,0c0.6,0,0.7-0.2,0.7-0.8
		C94.8,876,94.8,872,94.8,868z"/>
	<path class="st1" d="M64,884c0.4,0.9,1,1.6,2,2c-0.7,0-1.6,0.3-1.9-0.1C63.7,885.5,64,884.6,64,884z"/>
	<path d="M123,809c5,0,10,0,15,0c2,0,3,1,3,3c0,10,0,19.9,0,29.9c0,2-1,3-3,3c-10,0-20,0-30,0c-1.9,0-3-1-3-3c0-10,0-20,0-30
		c0-2,1-3,3-3C113,809,118,809,123,809z M123,814.1c-4,0-8,0-12,0c-0.6,0-0.8,0.1-0.8,0.8c0,8,0,16.1,0,24.1c0,0.6,0.1,0.8,0.8,0.8
		c8.1,0,16.1,0,24.2,0c0.6,0,0.8-0.1,0.7-0.7c0-8.1,0-16.1,0-24.2c0-0.6-0.1-0.8-0.8-0.8C131,814.2,127,814.1,123,814.1z"/>
</g>
</svg>
