<svg width="248" height="218" viewBox="0 0 248 218" fill="none" xmlns="http://www.w3.org/2000/svg">
<path d="M156.9 0.699997C165.9 0.699997 172 4.9 175.3 13.3L182.1 31.7H224.6C231 31.7 236.5 34 241 38.5C245.5 43 247.8 48.5 247.8 54.9V194.1C247.8 200.6 245.5 206 241 210.5C236.5 215 231 217.3 224.6 217.3H23.4C16.9 217.3 11.5 215 6.99995 210.5C2.49995 206 0.199951 200.5 0.199951 194.1V54.9C0.199951 48.5 2.49995 43 6.99995 38.5C11.5 34 17 31.7 23.4 31.7H66L71.8 15.7C73.7 11.2 76.6 7.6 80.5 4.8C84.4 2.1 88.6999 0.699997 93.5999 0.699997H156.9ZM156.9 16.2H93.5999C89.9999 16.2 87.6 17.8 86.3 21L76.5999 47.1H23.4C21.1 47.1 19.2999 47.8 17.7999 49.3C16.2999 50.8 15.5999 52.6 15.5999 54.9V194.1C15.5999 196.4 16.2999 198.2 17.7999 199.7C19.2999 201.2 21.1 201.9 23.4 201.9H224.5C226.8 201.9 228.6 201.2 230.1 199.7C231.6 198.3 232.3 196.4 232.3 194.1V54.9C232.3 52.6 231.6 50.8 230.1 49.3C228.6 47.8 226.8 47.1 224.5 47.1H171.3L160.7 18.6C160.1 17 158.8 16.2 156.9 16.2ZM165.1 165.6C153.8 176.9 140.1 182.5 124 182.5C107.9 182.5 94.1999 176.9 82.8999 165.6C71.5999 154.3 66 140.6 66 124.5C66 108.4 71.5999 94.7 82.8999 83.4C94.1999 72.1 107.9 66.5 124 66.5C140.1 66.5 153.8 72.1 165.1 83.4C176.4 94.7 182 108.4 182 124.5C182 140.6 176.4 154.3 165.1 165.6ZM154 94.5C145.6 86.1 135.6 81.9 124 81.9C112.4 81.9 102.4 86.1 94 94.5C85.6 102.9 81.3999 112.9 81.3999 124.5C81.3999 136.1 85.6 146.1 94 154.5C102.4 162.9 112.4 167.1 124 167.1C135.6 167.1 145.6 162.9 154 154.5C162.4 146.1 166.6 136.1 166.6 124.5C166.5 112.9 162.4 102.9 154 94.5ZM108.5 124.5C108.5 126.8 107.8 128.6 106.3 130.1C104.8 131.5 103 132.3 100.7 132.3C98.4 132.3 96.5999 131.6 95.0999 130.1C93.5999 128.6 92.8999 126.8 92.8999 124.5C92.8999 116.1 96 108.9 102.1 102.7C108.2 96.6 115.5 93.5 123.9 93.5C126.2 93.5 128 94.2 129.5 95.7C131 97.2 131.7 99 131.7 101.3C131.7 103.6 131 105.4 129.5 106.9C128 108.4 126.2 109.1 123.9 109.1C119.7 109.1 116.1 110.6 113 113.7C110.1 116.7 108.5 120.3 108.5 124.5Z" fill="white"/>
</svg>
