<?xml version="1.0" encoding="utf-8"?>
<!-- Generator: Adobe Illustrator 27.9.0, SVG Export Plug-In . SVG Version: 6.00 Build 0)  -->
<svg version="1.1" id="Capa_1" xmlns="http://www.w3.org/2000/svg" xmlns:xlink="http://www.w3.org/1999/xlink" x="0px" y="0px"
	 viewBox="0 0 300 300" style="enable-background:new 0 0 300 300;" xml:space="preserve">
<style type="text/css">
	.st0{fill:#FDFDFD;}
	.st1{fill:#C48800;}
</style>
<g>
	<path d="M64,811c0.6-1.5,1.7-2,3.3-2c9.8,0,19.6,0,29.5,0c2.2,0,3.1,0.9,3.1,3.1c0,9.9,0,19.7,0,29.6c0,2.2-0.9,3.2-3.1,3.2
		c-9.8,0-19.6,0-29.5,0c-1.6,0-2.7-0.5-3.3-2C64,832.3,64,821.6,64,811z M81.9,839.8c4,0,8.1,0,12.1,0c0.6,0,0.8-0.1,0.8-0.8
		c0-8,0-16.1,0-24.1c0-0.6-0.1-0.8-0.8-0.8c-8.1,0-16.1,0-24.2,0c-0.6,0-0.8,0.1-0.8,0.7c0,8.1,0,16.2,0,24.2c0,0.6,0.2,0.7,0.8,0.7
		C73.9,839.8,77.9,839.8,81.9,839.8z"/>
	<path d="M107,885.9c-1.5-0.6-2-1.7-2-3.3c0-9.8,0-19.6,0-29.4c0-2.2,0.9-3.1,3.2-3.1c9.9,0,19.7,0,29.6,0c2.2,0,3.2,0.9,3.2,3.1
		c0,9.9,0,19.7,0,29.6c0,1.8-0.5,2.5-2.1,3.2C128.2,885.9,117.6,885.9,107,885.9z M110.1,868c0,4.1,0,8.1,0,12.2
		c0,0.4,0,0.7,0.6,0.7c8.2,0,16.4,0,24.6,0c0.5,0,0.6-0.2,0.6-0.6c0-8.2,0-16.3,0-24.5c0-0.5-0.2-0.6-0.6-0.6c-8.1,0-16.3,0-24.4,0
		c-0.5,0-0.7,0.2-0.6,0.7C110.2,859.9,110.1,863.9,110.1,868z"/>
	<path d="M64,852c0.6-1.5,1.7-2,3.3-2c9.8,0,19.6,0,29.4,0c2.2,0,3.2,0.9,3.2,3.1c0,9.9,0,19.7,0,29.6c0,1.8-0.5,2.5-2.1,3.2
		c-10.6,0-21.2,0-31.9,0c-0.9-0.4-1.6-1-2-2C64,873.3,64,862.6,64,852z M94.8,868c0-4,0-8.1,0-12.1c0-0.6-0.1-0.8-0.8-0.8
		c-8,0-16.1,0-24.1,0c-0.6,0-0.8,0.1-0.8,0.8c0,8.1,0,16.1,0,24.2c0,0.6,0.1,0.8,0.7,0.8c8.1,0,16.2,0,24.3,0c0.6,0,0.7-0.2,0.7-0.8
		C94.8,876,94.8,872,94.8,868z"/>
	<path class="st0" d="M64,884c0.4,0.9,1,1.6,2,2c-0.7,0-1.6,0.3-1.9-0.1C63.7,885.5,64,884.6,64,884z"/>
	<path d="M123,809c5,0,10,0,15,0c2,0,3,1,3,3c0,10,0,19.9,0,29.9c0,2-1,3-3,3c-10,0-20,0-30,0c-1.9,0-3-1-3-3c0-10,0-20,0-30
		c0-2,1-3,3-3C113,809,118,809,123,809z M123,814.1c-4,0-8,0-12,0c-0.6,0-0.8,0.1-0.8,0.8c0,8,0,16.1,0,24.1c0,0.6,0.1,0.8,0.8,0.8
		c8.1,0,16.1,0,24.2,0c0.6,0,0.8-0.1,0.7-0.7c0-8.1,0-16.1,0-24.2c0-0.6-0.1-0.8-0.8-0.8C131,814.2,127,814.1,123,814.1z"/>
</g>
<g>
	<g>
		<path class="st1" d="M235.7,121.7c0,39-52.2,108.4-75.1,137.1c-5.5,6.8-15.7,6.8-21.1,0c-23.3-28.6-75.1-98.1-75.1-137.1
			c0-47.3,38.4-85.7,85.7-85.7C197.3,36.1,235.7,74.4,235.7,121.7z M150,50.4c-39.4,0-71.4,31.9-71.4,71.4c0,7,2.4,16.5,7.4,28.3
			c4.9,11.6,11.7,24.1,19.4,36.6c15.2,24.7,33.2,48.3,44.6,62.5c11.3-14.2,29.4-37.8,44.6-62.5c7.7-12.5,14.5-25.1,19.4-36.6
			c5-11.8,7.4-21.3,7.4-28.3C221.4,82.3,189.4,50.4,150,50.4z M185.7,121.7c0,19.7-16,35.7-35.7,35.7c-19.7,0-35.7-16-35.7-35.7
			S130.3,86,150,86C169.7,86,185.7,102,185.7,121.7z M150,143.2c11.8,0,21.4-9.6,21.4-21.4s-9.6-21.4-21.4-21.4
			c-11.8,0-21.4,9.6-21.4,21.4S138.2,143.2,150,143.2z"/>
		<path class="st1" d="M150,264.4c-4.3,0-8.3-1.9-11-5.3c-8.1-9.9-28.7-36.1-46.3-64.7c-19.2-31.2-28.9-55.6-28.9-72.7
			c0-47.5,38.7-86.2,86.2-86.2s86.2,38.7,86.2,86.2c0,17-9.8,41.4-29,72.7c-15.4,25.1-33.6,49-46.2,64.7
			C158.3,262.5,154.3,264.4,150,264.4z M150,36.6c-47,0-85.2,38.2-85.2,85.2c0,42.4,62.5,121.4,75,136.8c2.5,3.1,6.2,4.9,10.2,4.9
			c4,0,7.7-1.8,10.2-4.9c12.5-15.7,30.7-39.6,46.1-64.6c19.2-31.1,28.9-55.4,28.9-72.2C235.2,74.8,197,36.6,150,36.6z M150,250
			l-0.4-0.5c-12.2-15.3-29.9-38.6-44.6-62.6c-8.4-13.6-15-26-19.5-36.7c-4.9-11.7-7.4-21.3-7.4-28.5c0-39.6,32.2-71.9,71.9-71.9
			s71.9,32.2,71.9,71.9c0,7.3-2.5,16.8-7.4,28.5c-4.5,10.7-11.1,23.1-19.4,36.7c-14.8,23.9-32.4,47.2-44.6,62.6L150,250z M150,50.9
			c-39.1,0-70.9,31.8-70.9,70.9c0,7.1,2.5,16.5,7.3,28.1c4.5,10.7,11,23,19.4,36.6c14.6,23.6,32,46.7,44.1,62
			c12.2-15.3,29.6-38.3,44.1-62c8.4-13.6,14.9-25.9,19.4-36.6c4.8-11.4,7.4-21.1,7.4-28.1C220.9,82.7,189.1,50.9,150,50.9z
			 M150,157.9c-20,0-36.2-16.2-36.2-36.2S130,85.5,150,85.5c20,0,36.2,16.2,36.2,36.2S170,157.9,150,157.9z M150,86.5
			c-19.4,0-35.2,15.8-35.2,35.2s15.8,35.2,35.2,35.2s35.2-15.8,35.2-35.2S169.4,86.5,150,86.5z M150,143.7
			c-12.1,0-21.9-9.8-21.9-21.9s9.8-21.9,21.9-21.9s21.9,9.8,21.9,21.9S162.1,143.7,150,143.7z M150,100.8
			c-11.5,0-20.9,9.4-20.9,20.9s9.4,20.9,20.9,20.9c11.5,0,20.9-9.4,20.9-20.9S161.5,100.8,150,100.8z"/>
	</g>
</g>
</svg>
