<?xml version="1.0" encoding="utf-8"?>
<!-- Generator: Adobe Illustrator 26.3.1, SVG Export Plug-In . SVG Version: 6.00 Build 0)  -->
<svg version="1.1" id="Capa_1" xmlns="http://www.w3.org/2000/svg" xmlns:xlink="http://www.w3.org/1999/xlink" x="0px" y="0px"
	 viewBox="0 0 300 300" style="enable-background:new 0 0 300 300;" xml:space="preserve">
<style type="text/css">
	.st0{fill-rule:evenodd;clip-rule:evenodd;fill:#80CBF2;}
	.st1{fill-rule:evenodd;clip-rule:evenodd;fill:#00A3DD;}
	.st2{fill-rule:evenodd;clip-rule:evenodd;fill:#0075B8;}
	.st3{fill-rule:evenodd;clip-rule:evenodd;fill:#AA84B3;}
	.st4{fill-rule:evenodd;clip-rule:evenodd;fill:#743B8C;}
	.st5{fill-rule:evenodd;clip-rule:evenodd;fill:#372C65;}
	.st6{fill-rule:evenodd;clip-rule:evenodd;fill:#EE9ABD;}
	.st7{fill-rule:evenodd;clip-rule:evenodd;fill:#C22A75;}
	.st8{fill-rule:evenodd;clip-rule:evenodd;fill:#F1AE88;}
	.st9{fill-rule:evenodd;clip-rule:evenodd;fill:#CE2C1E;}
	.st10{fill-rule:evenodd;clip-rule:evenodd;fill:#AECE93;}
	.st11{fill-rule:evenodd;clip-rule:evenodd;fill:#176633;}
	.st12{fill-rule:evenodd;clip-rule:evenodd;fill:#39A338;}
	.st13{fill-rule:evenodd;clip-rule:evenodd;fill:#E54E23;}
	.st14{fill-rule:evenodd;clip-rule:evenodd;fill:#E5007E;}
	.st15{fill:#FDFDFD;}
</style>
<g>
	<path class="st0" d="M149.1,144.8c-10.6-9-24.2-14.3-39.2-14.3c-33.7,0-61.1,27.3-61.1,61c0,24.8,14.8,46.2,36.1,55.8
		c-5.8-9.7-9.1-20.7-9.2-32.4c-3.3-6.9-5.2-14.6-5.2-22.7c0-29.6,23.9-53.5,53.5-53.5c8.7,0,16.8,2.1,24,5.8
		c-0.5,0.1-0.9,0.3-1.4,0.4C147.4,144.9,148.2,144.8,149.1,144.8z"/>
	<g>
		<path class="st1" d="M148,144.5c-0.5,0.1-0.9,0.3-1.4,0.4c-39.5,3.3-70.5,32.8-71,68.8v1c0,0,0.1,0.1,0.1,0.2
			c6.2,13.2,17.7,23.5,31.7,28.1c-5.3-9.8-8.2-20.9-8.2-32.8C99.2,179.3,119.8,153,148,144.5L148,144.5L148,144.5z M75.6,213.7
			c0,0.2,0,0.4,0,0.7c0,0.1,0,0.2,0,0.3V213.7L75.6,213.7z"/>
	</g>
	<path class="st2" d="M148,144.5c-7.2-3.7-15.4-5.8-24-5.8c-29.6,0-53.5,23.9-53.5,53.5c0,8,1.9,15.8,5.2,22.7
		c0-0.2-0.1-0.3-0.1-0.5c0-36.3,31.2-66.2,71-69.5C147.1,144.8,147.5,144.6,148,144.5z"/>
	<path class="st3" d="M140.5,149.9c-11.4,7.6-20.5,19.3-24.7,33.6c-9.6,32.4,8.9,66.4,41,76c23.8,7,48.4-1,63.7-18.8
		c-10.9,2.9-22.4,2.9-33.6-0.3c-7.5,1.1-15.5,0.7-23.3-1.7c-28.1-8.3-44.3-38.1-35.9-66.4c2.5-8.4,6.8-15.6,12.3-21.5
		c0,0.5,0,1,0,1.5C140.2,151.5,140.4,150.7,140.5,149.9z"/>
	<g>
		<path class="st4" d="M140,150.8c0,0.5,0,1,0,1.5c-1,5.1-1.7,10.1-1.8,15.2v5.2c0.9,31.4,19.4,59.1,48.1,67.6c0.1,0,0.3,0,0.5,0.1
			c14.4-2.3,27.5-10.3,36-22.6c-10.8,2.4-22.4,2.1-33.7-1.3C159.4,207.6,140.1,180.4,140,150.8L140,150.8L140,150.8z M186.9,240.4
			c-0.8,0.1-1.8,0.2-2.6,0.3C185.1,240.6,186,240.5,186.9,240.4L186.9,240.4z"/>
	</g>
	<path class="st5" d="M140,150.8c-5.5,6-9.8,13.2-12.3,21.5c-8.5,28.2,7.7,58,35.9,66.4c7.8,2.4,15.8,2.8,23.3,1.7
		c-0.2-0.1-0.3-0.1-0.5-0.1c-34.8-10.4-54.4-48.8-46.4-87.9C140,151.8,140,151.3,140,150.8z"/>
	<path class="st6" d="M142.8,159.9c3.7,13.4,12,25.6,24.2,34.1c27.8,19.1,65.9,12,84.9-15.9c14.1-20.4,13.9-46.4,1.9-66.3
		c-0.7,11.2-4.1,22.2-10.7,31.9c-1.2,7.5-4,14.9-8.7,21.6c-16.7,24.3-50,30.5-74.3,13.8c-7.1-4.9-12.8-11.3-16.6-18.5
		c0.4,0.2,0.9,0.3,1.4,0.4C144.2,160.7,143.5,160.3,142.8,159.9z"/>
	<path class="st7" d="M143.5,160.7c3.8,7.1,9.5,13.5,16.6,18.5c24.3,16.7,57.6,10.5,74.3-13.8c4.6-6.7,7.4-14.1,8.7-21.6
		c-0.1,0.1-0.2,0.3-0.3,0.4c-20.5,30-63.1,36.9-97.8,17C144.4,161,143.9,160.9,143.5,160.7z"/>
	<path class="st8" d="M152.7,160.1c13.9,0.7,28-3.3,40-12.4c26.9-20.3,32.2-58.7,11.8-85.6c-14.9-19.8-39.7-27.8-62.4-22.6
		c10.4,4.1,19.7,10.9,26.9,20.1c6.7,3.6,12.8,8.7,17.7,15.2c17.8,23.5,13.2,57-10.3,74.8c-6.9,5.3-14.6,8.6-22.7,10
		c0.3-0.4,0.6-0.8,0.8-1.2C153.9,159,153.3,159.6,152.7,160.1z"/>
	<path class="st9" d="M153.7,159.7c8-1.4,15.8-4.7,22.7-10c23.5-17.8,28.1-51.3,10.3-74.8c-4.9-6.5-11-11.5-17.7-15.2
		c0.1,0.2,0.2,0.3,0.3,0.5c22,28.9,15,71.5-14.7,98.2C154.3,158.9,154,159.3,153.7,159.7z"/>
	<path class="st10" d="M155.5,149.7c4.7-13,5.2-27.7,0-41.9c-11.4-31.6-46.4-48-78.1-36.5c-23.3,8.5-38.3,29.7-40.1,52.9
		c7.1-8.8,16.3-15.6,27.2-19.7C70,99.1,76.6,94.7,84.2,92c27.7-10,58.3,4.2,68.3,32c3,8.2,3.8,16.6,2.9,24.7
		c-0.3-0.4-0.6-0.8-0.9-1.2C154.8,148.1,155.2,149,155.5,149.7z"/>
	<path class="st11" d="M155.4,148.6c0.9-8.1,0.1-16.5-2.9-24.7c-10-27.7-40.6-42-68.3-32c-7.6,2.8-14.2,7.1-19.7,12.6
		c0.2-0.1,0.4-0.1,0.5-0.2c34.1-12.4,72.8,6.7,89.5,43.1C154.8,147.8,155.1,148.2,155.4,148.6z"/>
	<path class="st12" d="M154,146.3c0.5,0.6,1,1.3,1.5,2c-0.3-0.5-0.6-0.8-0.9-1.2c-16.5-36-54.8-55.2-88.8-43.5
		c-0.1,0-0.2,0.1-0.4,0.1l0.1-0.1c0,0-0.1,0.1-0.1,0.1c-0.1,0-0.2,0.1-0.3,0.1c-0.1,0-0.2,0.1-0.3,0.1c0,0-0.1,0.1-0.2,0.2
		c-10.3,10.3-16.1,24.7-15.7,39.4c0,0,0,0,0.1-0.1v0.6c4.6-5.3,10.2-9.8,16.5-13.5c3.5-2.2,7.3-3.9,11.4-5.5
		c29.2-10.6,60.8-0.1,78.4,23.6c-0.3-0.4-0.6-0.8-0.9-1.2C154.3,147,154.2,146.7,154,146.3z"/>
	<path class="st13" d="M154.3,158.9c0.1-0.2,0.2-0.3,0.4-0.5c0,0-0.1,0.1-0.1,0.1C154.4,158.6,154.4,158.7,154.3,158.9z M173.7,66.8
		c-0.2-0.4-0.5-0.8-0.7-1.2c-0.1-0.2-0.2-0.4-0.3-0.6c-0.9-1.5-1.9-3-2.9-4.4c-0.1-0.2-0.2-0.3-0.4-0.6c0-0.1-0.1-0.1-0.1-0.2
		c0.3,0.2,0.6,0.3,0.9,0.5c0.3,0.2,0.7,0.4,1.1,0.6c-0.4-0.2-0.8-0.5-1.1-0.7c-0.4-0.2-0.8-0.4-1.1-0.6v0.1c0,0-0.1,0-0.1,0
		c-12.9-6.8-28.3-8.1-42.3-3.3c0.1,0,0.2,0.1,0.3,0.2c-0.1,0-0.1,0-0.2,0.1c9.3,4.2,17.9,10.8,24.8,19.3c0.5,0.6,0.9,1.1,1.4,1.7
		c18.7,24.8,18.1,58.2,0.6,81.9c0.3-0.4,0.6-0.8,0.9-1.2c0.2-0.2,0.4-0.4,0.6-0.5c-0.1,0.2-0.2,0.4-0.4,0.6
		c6.1-5.5,11.3-11.7,15.5-18.2c7.5-12.2,11.8-25.8,12.1-39.2v-3.4C181.9,86.8,179.1,76.3,173.7,66.8z"/>
	<path class="st14" d="M144.7,161.1c-0.4-0.1-0.8-0.2-1.2-0.4C143.8,160.9,144.2,161,144.7,161.1z M232.9,102.4c0,0.1,0,0.2,0,0.3
		c0,0-0.1-0.1-0.1-0.1c-1.1,10.9-5.1,21.9-11.8,31.5c-6.4,9.4-14.7,16.6-24,21.6c-0.1,0.1-0.2,0.1-0.4,0.2c-0.4,0.2-0.9,0.5-1.3,0.7
		c-0.4,0.2-0.8,0.4-1.2,0.6c-0.2,0.1-0.4,0.2-0.6,0.3c-15.4,7.2-33.3,8.5-49.8,3.2c0.4,0.2,0.8,0.3,1.2,0.4c-0.1,0-0.1,0-0.2,0
		c0.1,0,0.2,0.1,0.3,0.1c0,0,0,0-0.1,0c0.1,0,0.1,0,0.2,0.1c0,0,0,0,0,0c0,0-0.1,0-0.1,0c28.1,16,61.3,14.6,83.8-2.4c0,0,0,0,0.1,0
		c0.4-0.3,0.8-0.6,1.2-0.9c4.7-3.7,9-8.1,12.6-13.2c0.1-0.2,0.2-0.3,0.4-0.6c0,0,0,0,0-0.1c-0.1,0.3-0.1,0.7-0.2,1
		c-0.1,0.5-0.2,0.9-0.2,1.3c0-0.4,0.1-0.8,0.2-1.2c0.1-0.3,0.2-0.8,0.2-1.1c0-0.1,0.1-0.1,0.1-0.2c0,0,0-0.1,0-0.2
		C245.5,129.1,241.8,114.1,232.9,102.4z"/>
</g>
<g>
	<path d="M64,811c0.6-1.5,1.7-2,3.3-2c9.8,0,19.6,0,29.5,0c2.2,0,3.1,0.9,3.1,3.1c0,9.9,0,19.7,0,29.6c0,2.2-0.9,3.2-3.1,3.2
		c-9.8,0-19.6,0-29.5,0c-1.6,0-2.7-0.5-3.3-2C64,832.3,64,821.6,64,811z M81.9,839.8c4,0,8.1,0,12.1,0c0.6,0,0.8-0.1,0.8-0.8
		c0-8,0-16.1,0-24.1c0-0.6-0.1-0.8-0.8-0.8c-8.1,0-16.1,0-24.2,0c-0.6,0-0.8,0.1-0.8,0.7c0,8.1,0,16.2,0,24.2c0,0.6,0.2,0.7,0.8,0.7
		C73.9,839.8,77.9,839.8,81.9,839.8z"/>
	<path d="M107,885.9c-1.5-0.6-2-1.7-2-3.3c0-9.8,0-19.6,0-29.4c0-2.2,0.9-3.1,3.2-3.1c9.9,0,19.7,0,29.6,0c2.2,0,3.2,0.9,3.2,3.1
		c0,9.9,0,19.7,0,29.6c0,1.8-0.5,2.5-2.1,3.2C128.2,885.9,117.6,885.9,107,885.9z M110.1,868c0,4.1,0,8.1,0,12.2
		c0,0.4,0,0.7,0.6,0.7c8.2,0,16.4,0,24.6,0c0.5,0,0.6-0.2,0.6-0.6c0-8.2,0-16.3,0-24.5c0-0.5-0.2-0.6-0.6-0.6c-8.1,0-16.3,0-24.4,0
		c-0.5,0-0.7,0.2-0.6,0.7C110.2,859.9,110.1,863.9,110.1,868z"/>
	<path d="M64,852c0.6-1.5,1.7-2,3.3-2c9.8,0,19.6,0,29.4,0c2.2,0,3.2,0.9,3.2,3.1c0,9.9,0,19.7,0,29.6c0,1.8-0.5,2.5-2.1,3.2
		c-10.6,0-21.2,0-31.9,0c-0.9-0.4-1.6-1-2-2C64,873.3,64,862.6,64,852z M94.8,868c0-4,0-8.1,0-12.1c0-0.6-0.1-0.8-0.8-0.8
		c-8,0-16.1,0-24.1,0c-0.6,0-0.8,0.1-0.8,0.8c0,8.1,0,16.1,0,24.2c0,0.6,0.1,0.8,0.7,0.8c8.1,0,16.2,0,24.3,0c0.6,0,0.7-0.2,0.7-0.8
		C94.8,876,94.8,872,94.8,868z"/>
	<path class="st15" d="M64,884c0.4,0.9,1,1.6,2,2c-0.7,0-1.6,0.3-1.9-0.1C63.7,885.5,64,884.6,64,884z"/>
	<path d="M123,809c5,0,10,0,15,0c2,0,3,1,3,3c0,10,0,19.9,0,29.9c0,2-1,3-3,3c-10,0-20,0-30,0c-1.9,0-3-1-3-3c0-10,0-20,0-30
		c0-2,1-3,3-3C113,809,118,809,123,809z M123,814.1c-4,0-8,0-12,0c-0.6,0-0.8,0.1-0.8,0.8c0,8,0,16.1,0,24.1c0,0.6,0.1,0.8,0.8,0.8
		c8.1,0,16.1,0,24.2,0c0.6,0,0.8-0.1,0.7-0.7c0-8.1,0-16.1,0-24.2c0-0.6-0.1-0.8-0.8-0.8C131,814.2,127,814.1,123,814.1z"/>
</g>
</svg>
